<?xml version="1.0" encoding="UTF-8"?>
<svg width="2530px" height="978px" viewBox="0 0 2530 978" version="1.1" xmlns="http://www.w3.org/2000/svg" xmlns:xlink="http://www.w3.org/1999/xlink">
    <!-- Generator: sketchtool 53.1 (72631) - https://sketchapp.com -->
    <title>94E19808-EC7B-43EC-8B16-654616C2C7D8</title>
    <desc>Created with sketchtool.</desc>
    <g id="Symbols" stroke="none" stroke-width="1" fill="none" fill-rule="evenodd">
        <g id="logo/Mark-+-Logotype-inline-on-light" fill="#FF3F3F">
            <g transform="translate(105.000000, 109.000000)">
                <path d="M182.97013,119.364964 C203.159558,50.3838764 266.867973,0 342.343284,0 C417.973085,0 481.787769,50.5903487 501.839867,119.788789 C557.371253,99.9557442 610.993599,88.54 655,88.54 C672.120827,88.54 686,102.419173 686,119.54 L686,417.184784 C686,603.065232 536.236452,754.305935 349.249879,760.783813 L349.249804,760.783815 L349.249804,761 C347.16223,761 345.078911,760.981961 343,760.946033 C340.921084,760.981961 338.837768,761 336.750196,761 L336.750196,760.783815 C149.763548,754.305935 7.95807864e-13,603.065232 7.95807864e-13,417.184784 L1.13686838e-13,119.54 C-1.13686838e-13,102.419173 13.8791728,88.54 31,88.54 C74.6919798,88.54 127.862985,99.7931983 182.97013,119.364964 L182.97013,119.364964 Z M240.939957,142.720055 C271.918258,156.669956 302.681543,172.889719 331.92101,190.87014 C335.654576,193.166047 339.348185,195.481763 343,197.816173 C346.651815,195.481763 350.345424,193.166047 354.07899,190.87014 C382.943554,173.120261 413.293111,157.08618 443.868558,143.257763 C433.450545,96.7475742 391.947847,62 342.343284,62 C292.930068,62 251.556333,96.4800163 240.939957,142.720055 L240.939957,142.720055 Z M288.093035,236.849159 C212.396591,192.226456 127.247838,160.731329 62,152.607156 L62,417.184784 C62,570.660425 187.129357,695.67205 343,698.93465 C498.870638,695.672054 624,570.660428 624,417.184784 L624,152.607156 C558.752168,160.731328 473.603424,192.226451 397.906986,236.849147 C420.703008,254.961241 440.794513,273.738845 457.485716,292.759525 C493.574389,333.884847 513.701493,375.860244 513.701493,417.184784 C513.701493,513.686999 437.544498,589.34763 343,589.34763 C248.455502,589.34763 172.298507,513.686999 172.298507,417.184784 C172.298507,375.860244 192.425611,333.884847 228.514284,292.759525 C245.205487,273.738845 265.296992,254.961241 288.093035,236.849159 L288.093035,236.849159 Z M343,527.34763 C403.39327,527.34763 451.701493,479.354262 451.701493,417.184784 C451.701493,375.973945 411.153157,322.964347 343,272.909204 C274.846843,322.964347 234.298507,375.973945 234.298507,417.184784 C234.298507,479.354262 282.60673,527.34763 343,527.34763 L343,527.34763 Z" id="Shape" fill-rule="nonzero"></path>
                <g id="Group" transform="translate(792.000000, 205.000000)">
                    <path d="M151.265854,328.386667 L151.265854,313.030667 C138.687805,334.436 112.134146,343.742667 87.9097561,343.742667 C32.4731707,343.742667 0.795121951,303.258667 0.795121951,253.468 L0.795121951,118.056 C0.795121951,112.91607 4.9665177,108.749333 10.1121951,108.749333 L53.4365854,108.749333 C58.5822628,108.749333 62.7536585,112.91607 62.7536585,118.056 L62.7536585,240.904 C62.7536585,266.497333 75.797561,286.972 104.680488,286.972 C132.165854,286.972 148.004878,268.358667 148.004878,241.834667 L148.004878,118.056 C148.004878,112.91607 152.176274,108.749333 157.321951,108.749333 L200.646341,108.749333 C205.792019,108.749333 209.963415,112.91607 209.963415,118.056 L209.963415,328.386667 C209.963415,333.526597 205.792019,337.693333 200.646341,337.693333 L160.582927,337.693333 C155.437249,337.693333 151.265854,333.526597 151.265854,328.386667 L151.265854,328.386667 Z" id="Path"></path>
                    <path d="M311.985366,337.693333 L268.660976,337.693333 C263.515299,337.693333 259.343903,333.526597 259.343903,328.386667 L259.343903,118.056 C259.343903,112.91607 263.515299,108.749333 268.660976,108.749333 L309.190244,108.749333 C314.335922,108.749333 318.507318,112.91607 318.507318,118.056 L318.507318,136.669333 C331.085366,114.333333 360.434147,102.234667 385.590244,102.234667 C416.802439,102.234667 441.958537,115.729333 453.604878,140.392 C471.773171,112.472 495.997561,102.234667 526.278049,102.234667 C568.670732,102.234667 609.2,127.828 609.2,189.252 L609.2,328.386667 C609.2,333.526597 605.028605,337.693333 599.882927,337.693333 L558.421952,337.693333 C553.276274,337.693333 549.104878,333.526597 549.104878,328.386667 L549.104878,201.816 C549.104878,177.153333 536.992683,158.54 508.57561,158.54 C482.021952,158.54 466.182927,179.014667 466.182927,203.677333 L466.182927,328.386667 C466.182927,333.526597 462.011532,337.693333 456.865854,337.693333 L414.007318,337.693333 C408.86164,337.693333 404.690244,333.526597 404.690244,328.386667 L404.690244,201.816 C404.690244,177.153333 392.112196,158.54 364.160976,158.54 C337.141464,158.54 321.302439,178.549333 321.302439,203.677333 L321.302439,328.386667 C321.302439,333.526597 317.131044,337.693333 311.985366,337.693333 Z" id="Path"></path>
                    <path d="M707.960976,337.693333 L664.636586,337.693333 C659.490909,337.693333 655.319513,333.526597 655.319513,328.386667 L655.319513,118.056 C655.319513,112.91607 659.490909,108.749333 664.636586,108.749333 L705.165855,108.749333 C710.311532,108.749333 714.482928,112.91607 714.482928,118.056 L714.482928,136.669333 C727.060976,114.333333 756.409757,102.234667 781.565855,102.234667 C812.77805,102.234667 837.934147,115.729333 849.580489,140.392 C867.748781,112.472 891.973172,102.234667 922.253659,102.234667 C964.646342,102.234667 1005.17561,127.828 1005.17561,189.252 L1005.17561,328.386667 C1005.17561,333.526597 1001.00421,337.693333 995.858537,337.693333 L954.397562,337.693333 C949.251884,337.693333 945.080489,333.526597 945.080489,328.386667 L945.080489,201.816 C945.080489,177.153333 932.968294,158.54 904.55122,158.54 C877.997562,158.54 862.158537,179.014667 862.158537,203.677333 L862.158537,328.386667 C862.158537,333.526597 857.987142,337.693333 852.841464,337.693333 L809.982928,337.693333 C804.83725,337.693333 800.665855,333.526597 800.665855,328.386667 L800.665855,201.816 C800.665855,177.153333 788.087806,158.54 760.136586,158.54 C733.117074,158.54 717.27805,178.549333 717.27805,203.677333 L717.27805,328.386667 C717.27805,333.526597 713.106654,337.693333 707.960976,337.693333 Z" id="Path"></path>
                    <path d="M1375.52927,203.212 L1375.52927,328.386667 C1375.52927,333.526597 1371.35787,337.693333 1366.2122,337.693333 L1322.88781,337.693333 C1317.74213,337.693333 1313.57073,333.526597 1313.57073,328.386667 L1313.57073,10.0986667 C1313.57073,4.95873659 1317.74213,0.792 1322.88781,0.792 L1366.2122,0.792 C1371.35787,0.792 1375.52927,4.95873659 1375.52927,10.0986667 L1375.52927,127.828 C1390.43659,110.145333 1415.59268,102.7 1437.48781,102.7 C1495.71951,102.7 1522.73903,143.184 1522.73903,193.44 L1522.73903,328.386667 C1522.73903,333.526597 1518.56763,337.693333 1513.42195,337.693333 L1470.09756,337.693333 C1464.95189,337.693333 1460.78049,333.526597 1460.78049,328.386667 L1460.78049,204.142667 C1460.78049,178.549333 1448.20244,158.54 1418.38781,158.54 C1392.3,158.54 1376.92683,178.084 1375.52927,203.212 Z" id="Path"></path>
                    <path d="M1224.2342,106.789293 L1265.12195,106.789293 C1270.26763,106.789293 1274.43902,110.95603 1274.43902,116.09596 L1274.43902,326.62404 C1274.43902,331.76397 1270.26763,335.930707 1265.12195,335.930707 L1224.2342,335.930707 C1219.08852,335.930707 1214.91713,331.76397 1214.91713,326.62404 L1214.91713,314.391414 C1199.77255,331.806162 1177.28516,342.346667 1146.53708,342.346667 C1086.41772,342.346667 1036.85366,289.644141 1036.85366,221.36 C1036.85366,153.075859 1086.41772,100.373333 1146.53708,100.373333 C1177.28516,100.373333 1199.77255,110.913838 1214.91713,128.328586 L1214.91713,116.09596 C1214.91713,110.95603 1219.08852,106.789293 1224.2342,106.789293 L1224.2342,106.789293 Z M1153.31707,286.506667 C1188.43226,286.506667 1213.87805,261.40918 1213.87805,221.36 C1213.87805,181.31082 1188.43226,156.213333 1153.31707,156.213333 C1118.20189,156.213333 1092.7561,181.31082 1092.7561,221.36 C1092.7561,261.40918 1118.20189,286.506667 1153.31707,286.506667 Z" id="Shape"></path>
                </g>
            </g>
        </g>
    </g>
</svg>